<svg xmlns="http://www.w3.org/2000/svg" xmlns:xlink="http://www.w3.org/1999/xlink" width="28.899" height="26.82" viewBox="0 0 28.899 26.82">
  <defs>
    <clipPath id="clip-path">
      <rect id="Rectangle_4638" data-name="Rectangle 4638" width="28.899" height="26.82" transform="translate(0 0)" fill="#040905"/>
    </clipPath>
  </defs>
  <g id="Novello" transform="translate(0 0)" clip-path="url(#clip-path)">
    <path id="Path_4" data-name="Path 4" d="M28.891.764C28.8.022,28.13.029,27.6.022Q24.25-.02,20.9.016c-.534,0-1.221-.051-1.39.622-.241.956.58,1.077,1.2,1.2a2.75,2.75,0,0,1,2.511,2.97l0,.053c-.017,3.34-.005,6.681-.005,10.021l-.668.235c-1.929-2.4-4.129-4.654-5.982-7.1L10.527.917A8.821,8.821,0,0,0,8.993.351H.6A.866.866,0,0,0,.473.668c-.154.746.437.938.989,1.033C3.4,2.03,3.513,3.472,3.516,4.994c.012,5.258.05,10.516.03,15.774-.006,1.718-.1,3.467-2.448,3.69-.6.058-1.192.436-1.085,1.036.144.814.955.792,1.631.793,2.124,0,4.247.008,6.371-.011.746-.006,1.763.2,1.842-.872.058-.78-.787-1.016-1.469-1.06a2.436,2.436,0,0,1-2.544-2.323,2.243,2.243,0,0,1,0-.246c-.07-5.183-.026-10.366-.026-16.2.944,1.087,1.456,1.634,1.92,2.219q3.86,4.86,7.714,9.726l7.59,9.3h1.942a1.146,1.146,0,0,0,.342-.474V24.212c0-.088-.009-.175-.008-.258,0-.322,0-.645.008-.967V11.214h.046q0-2.693-.006-5.384c0-1.865.014-3.657,2.477-4.013.525-.076,1.138-.326,1.046-1.053" fill="#040905"/>
  </g>
</svg>
